inDegrees=no
num_controls=7
num_derivatives=13
num_iterations=149
num_multipliers=7
num_parameters=0
num_slacks=7
num_states=26
objective=6.206778
objective_accelerations=0.718643
objective_balance=0.032085
objective_effort=0.670240
objective_height=4.715019
objective_ligament=0.070791
solver_duration=1512.391127
status=Solve_Succeeded
success=true
DataType=double
version=3
OpenSimVersion=4.4-2022-07-23-0e9fedc
endheader
time	/jointset/ground_pelvis/pelvis_tilt/value	/jointset/ground_pelvis/pelvis_tx/value	/jointset/ground_pelvis/pelvis_ty/value	/jointset/hip_l/hip_flexion_l/value	/jointset/hip_l/hip_adduction_l/value	/jointset/hip_l/hip_rotation_l/value	/jointset/back/lumbar_extension/value	/jointset/patellofemoral_l/patellar_flexion_l/value	/jointset/knee_l/knee_flexion_l/value	/jointset/knee_l/knee_adduction_l/value	/jointset/knee_l/knee_rotation_l/value	/jointset/ankle_l/ankle_angle_l/value	/jointset/subtalar_l/subtalar_angle_l/value	/jointset/ground_pelvis/pelvis_tilt/speed	/jointset/ground_pelvis/pelvis_tx/speed	/jointset/ground_pelvis/pelvis_ty/speed	/jointset/hip_l/hip_flexion_l/speed	/jointset/hip_l/hip_adduction_l/speed	/jointset/hip_l/hip_rotation_l/speed	/jointset/back/lumbar_extension/speed	/jointset/patellofemoral_l/patellar_flexion_l/speed	/jointset/knee_l/knee_flexion_l/speed	/jointset/knee_l/knee_adduction_l/speed	/jointset/knee_l/knee_rotation_l/speed	/jointset/ankle_l/ankle_angle_l/speed	/jointset/subtalar_l/subtalar_angle_l/speed	/forceset/tau_hip_flexion_l	/forceset/tau_hip_adduction_l	/forceset/tau_hip_rotation_l	/forceset/tau_knee_flexion_l	/forceset/tau_ankle_angle_l	/forceset/tau_subtalar_angle_l	/forceset/tau_lumbar_extension	lambda_cid13_p0	lambda_cid13_p1	lambda_cid13_p2	lambda_cid13_p3	lambda_cid13_p4	lambda_cid13_p5	lambda_cid14_p0	/jointset/ground_pelvis/pelvis_tilt/accel	/jointset/ground_pelvis/pelvis_tx/accel	/jointset/ground_pelvis/pelvis_ty/accel	/jointset/hip_l/hip_flexion_l/accel	/jointset/hip_l/hip_adduction_l/accel	/jointset/hip_l/hip_rotation_l/accel	/jointset/back/lumbar_extension/accel	/jointset/patellofemoral_l/patellar_flexion_l/accel	/jointset/knee_l/knee_flexion_l/accel	/jointset/knee_l/knee_adduction_l/accel	/jointset/knee_l/knee_rotation_l/accel	/jointset/ankle_l/ankle_angle_l/accel	/jointset/subtalar_l/subtalar_angle_l/accel	gamma_cid13_p0	gamma_cid13_p1	gamma_cid13_p2	gamma_cid13_p3	gamma_cid13_p4	gamma_cid13_p5	gamma_cid14_p0
1	-0.3210652615997365	-0.149243781575564	0.5990689603773988	1.765259050199476	-0.3142710919293663	0.06602860387826291	-0.9599296808191322	1.415205065213603	1.415205065213548	-0.03989101809098548	-0.1745315303415538	0.06332269812765776	-0.002080098010661739	0.08339612940530038	0.01584173905320116	0.07823345669288106	-0.2846611876197247	-0.007259750895669294	-0.06038155944488481	-4.451610413043186e-07	-0.1652241113861761	-0.1652241113861768	-0.006292816774577154	4.569585321069026e-06	0.02763675460334042	0.002617831674627108	-0.5258708667014805	-0.02906945625879987	-0.002177535236734537	-0.3065778844148144	0.1934747476684666	0.03130328856451011	0.5020109780626527	8.125419268781434	-13.17524390157689	-0.4583642901861791	4.016089258993123	-830.8896545234654	-61.69548422179378	-0.04105814425022427	1.36044592544845	0.1694539184000979	2.003842721581341	-6.715869216018737	-0.2651835374931531	-1.591825514951492	-0.01323511684729503	-5.11475979365284	-5.114759793652889	-0.5312491353905393	-0.02300412166532808	-0.0846453866474797	-0.2926195419535247	-8.241983837401633e-09	-1.055185423763215e-08	3.748586812277061e-08	-4.722065701378209e-09	-2.366303590369623e-08	1.242452588048045e-07	-1.753461041673836e-08
1.01	-0.3201637022174111	-0.1490768500162513	0.599951243815766	1.762077599849519	-0.3143560129027985	0.06534492575977774	-0.9599297157207579	1.413297298305771	1.413297298306061	-0.03997904033401067	-0.1745315028286459	0.06359473562166183	-0.002067573350522558	0.09693094498468369	0.01755390709971509	0.09820822360732728	-0.3516068040916193	-0.009712993834109415	-0.07634788876775721	-6.675842040814756e-06	-0.2163154170053127	-0.2163154170053112	-0.0113054685704135	1.025796660311047e-06	0.02674820383311893	-0.0001086644476965864	-0.5249318378904384	-0.02885627657838443	-0.002216853406614432	-0.3065899059685701	0.1934592629473682	0.03151076294503464	0.5015447947006567	8.169468093670719	-13.27625597728878	-0.4386128748879718	3.839495299739719	-830.3332699968635	-61.85370111535549	-0.04110011398813065	1.352275781765515	0.1734971852812183	1.992036650744487	-6.680599958672009	-0.2336770083386847	-1.598129296653757	0.005661855582155262	-5.104233286644368	-5.104233286643999	-0.4853635628424313	0.01099971678678617	-0.09434157813417687	-0.262032451660026	-1.176898566935592e-08	-1.864020592229944e-08	5.208271737319078e-08	-6.017531691535172e-09	-2.953879360896631e-08	1.54916584307051e-07	-2.335680718056308e-08
1.02	-0.3191263393977687	-0.1488925169889725	0.6010328235181538	1.758227354915668	-0.3144651227728783	0.06450176581692539	-0.9599298171493937	1.410879034873627	1.410879034874265	-0.04011700716724478	-0.1745315049087439	0.06385721127677925	-0.002082187212464336	0.1105568168673487	0.01932203264641602	0.118092709496532	-0.4184201043993996	-0.01209753022532321	-0.09227792431857437	-1.375055070471199e-05	-0.267323416248459	-0.2673234162484541	-0.0162817348127314	-1.349021870993438e-06	0.02572438682590554	-0.002809872741550327	-0.5239928090794	-0.02864309689796033	-0.00225617157662545	-0.3066019275223269	0.193443778226274	0.03171823732557188	0.5010786113386556	8.208494880817264	-13.37620766299299	-0.4192369084724749	3.674121223986685	-829.8503302668083	-61.98661854736776	-0.04113962142528688	1.378657186104759	0.1806454184375217	1.985786516533037	-6.689405983195873	-0.251442228047899	-1.584566760540483	-0.01340392238014203	-5.098098518454778	-5.098098518454598	-0.5239720246868249	-0.02277032763946821	-0.1116986340458139	-0.2875619762595326	-1.524112156698969e-08	-2.640543672292357e-08	6.63691032494617e-08	-6.891499931170787e-09	-3.501469553292194e-08	1.831606018851659e-07	-2.885730309599295e-08
1.03	-0.3179522184797391	-0.1486901889751699	0.6023127097315287	1.753709811520226	-0.3145977054578759	0.06349954785384866	-0.9599299846529067	1.407951220872556	1.407951220873093	-0.04030456661357592	-0.1745315464164243	0.06410867024669525	-0.002123690638176429	0.1242857770585356	0.02115608646727262	0.1378609354715399	-0.4850489428714192	-0.01440279544304674	-0.1081547145216872	-1.805126773156125e-05	-0.3182152116524158	-0.3182152116524009	-0.02122209891054702	-6.19861489989687e-06	0.02453496871810655	-0.005484857731079981	-0.5226757946206502	-0.02835052095745958	-0.002310761735040796	-0.3064966924503474	0.1934404516015336	0.03202088170460952	0.5003812288070187	8.280147761025914	-13.5259061475655	-0.38884416997768	3.435226650631424	-828.998755780389	-62.19456365128498	-0.04119991364010216	1.372772324844561	0.1866612594018806	1.968792851454541	-6.643683435659056	-0.2176382296888837	-1.587620030219495	0.006311686798465522	-5.081087300150322	-5.081087300148885	-0.4778819197492575	0.01079386137379656	-0.1274303474628125	-0.2565774954933705	-1.871269760815079e-08	-3.416737037166972e-08	8.065232113211886e-08	-7.7611671733521e-09	-4.048651729584375e-08	2.113798510150754e-07	-3.435451634970449e-08
